<svg xmlns="http://www.w3.org/2000/svg" viewBox="0 0 24 24" width="24" height="24">
  <!-- Cloud body filled with Lime-500 20% -->
  <path d="M6.75 19.5a4.5 4.5 0 01-1.41-8.775 5.25 5.25 0 0110.233-2.33 3 3 0 013.758 3.848A3.752 3.752 0 0118 19.5H6.75z" fill="#84cc16" opacity="0.2" />
  <!-- Cloud outline and arrow -->
  <path stroke-linecap="round" stroke-linejoin="round" d="M12 16.5V9.75m0 0l3 3m-3-3l-3 3M6.75 19.5a4.5 4.5 0 01-1.41-8.775 5.25 5.25 0 0110.233-2.33 3 3 0 013.758 3.848A3.752 3.752 0 0118 19.5H6.75z" stroke="#64748b" stroke-width="1.5" fill="none" />
</svg>