<svg xmlns="http://www.w3.org/2000/svg" viewBox="0 0 24 24" width="24" height="24">
  <!-- Awning background (Lime-500 with 20% opacity) -->
  <path d="M3.75 9.75h16.5l-1.5-6h-13.5l-1.5 6z" fill="#84cc16" opacity="0.2" />
  <!-- Awning lines -->
  <path stroke-linecap="round" stroke-linejoin="round" d="M2.25 9.75h19.5m-19.5 0a3.001 3.001 0 003.75-.615A2.993 2.993 0 009.75 9.75c.896 0 1.7-.393 2.25-1.016a2.993 2.993 0 002.25 1.016c.896 0 1.7-.393 2.25-1.016a3.001 3.001 0 003.75.614m-16.5 0a3.004 3.004 0 01-.621-4.72L4.318 3.44A1.5 1.5 0 015.378 3h13.243a1.5 1.5 0 011.06.44l1.19 1.189a3 3 0 01-.621 4.72" stroke="#64748b" stroke-width="1.5" fill="none" />
  <!-- Building base -->
  <path stroke-linecap="round" stroke-linejoin="round" d="M4.5 9.75v10.5a.75.75 0 00.75.75h13.5a.75.75 0 00.75-.75V9.75" stroke="#64748b" stroke-width="1.5" fill="none" />
  <!-- Door -->
  <path stroke-linecap="round" stroke-linejoin="round" d="M9 21v-7.5a.75.75 0 01.75-.75h4.5a.75.75 0 01.75.75V21" stroke="#64748b" stroke-width="1.5" fill="none" />
</svg>